<svg width="36" height="36" viewBox="0 0 36 36" fill="none" xmlns="http://www.w3.org/2000/svg">
<circle cx="18" cy="17.9995" r="18" fill="#f34648"/>
<path d="M15.48 12H20.52C22.44 12 24 13.56 24 15.48V20.52C24 21.443 23.6334 22.3281 22.9807 22.9807C22.3281 23.6334 21.443 24 20.52 24H15.48C13.56 24 12 22.44 12 20.52V15.48C12 14.557 12.3666 13.6719 13.0193 13.0193C13.6719 12.3666 14.557 12 15.48 12ZM15.36 13.2C14.7871 13.2 14.2377 13.4276 13.8326 13.8326C13.4276 14.2377 13.2 14.7871 13.2 15.36V20.64C13.2 21.834 14.166 22.8 15.36 22.8H20.64C21.2129 22.8 21.7623 22.5724 22.1674 22.1674C22.5724 21.7623 22.8 21.2129 22.8 20.64V15.36C22.8 14.166 21.834 13.2 20.64 13.2H15.36ZM21.15 14.1C21.3489 14.1 21.5397 14.179 21.6803 14.3197C21.821 14.4603 21.9 14.6511 21.9 14.85C21.9 15.0489 21.821 15.2397 21.6803 15.3803C21.5397 15.521 21.3489 15.6 21.15 15.6C20.9511 15.6 20.7603 15.521 20.6197 15.3803C20.479 15.2397 20.4 15.0489 20.4 14.85C20.4 14.6511 20.479 14.4603 20.6197 14.3197C20.7603 14.179 20.9511 14.1 21.15 14.1ZM18 15C18.7956 15 19.5587 15.3161 20.1213 15.8787C20.6839 16.4413 21 17.2044 21 18C21 18.7956 20.6839 19.5587 20.1213 20.1213C19.5587 20.6839 18.7956 21 18 21C17.2044 21 16.4413 20.6839 15.8787 20.1213C15.3161 19.5587 15 18.7956 15 18C15 17.2044 15.3161 16.4413 15.8787 15.8787C16.4413 15.3161 17.2044 15 18 15ZM18 16.2C17.5226 16.2 17.0648 16.3896 16.7272 16.7272C16.3896 17.0648 16.2 17.5226 16.2 18C16.2 18.4774 16.3896 18.9352 16.7272 19.2728C17.0648 19.6104 17.5226 19.8 18 19.8C18.4774 19.8 18.9352 19.6104 19.2728 19.2728C19.6104 18.9352 19.8 18.4774 19.8 18C19.8 17.5226 19.6104 17.0648 19.2728 16.7272C18.9352 16.3896 18.4774 16.2 18 16.2Z" fill="white"/>
</svg>
