<svg width="36" height="36" viewBox="0 0 36 36" fill="none" xmlns="http://www.w3.org/2000/svg">
<circle cx="18" cy="17.9995" r="18" fill="#f34648"/>
<path d="M17.8594 12.3745C14.4 12.3745 12.375 14.8908 12.375 16.912C12.375 18.1495 13.2188 19.387 13.6406 19.387C14.0625 19.387 14.4844 19.387 14.4844 18.9745C14.4844 18.562 13.6406 18.1495 13.6406 16.912C13.6406 15.097 15.6656 13.612 17.8594 13.612C19.8 13.612 20.8125 14.932 20.8125 16.4995C20.8125 18.562 19.6734 20.212 18.2812 20.212C17.5219 20.212 16.8469 19.717 17.0156 18.9745C17.2266 18.067 17.4375 18.1495 17.8594 16.4995C17.9859 15.922 17.6906 15.262 17.0156 15.262C16.2562 15.262 15.3281 15.8395 15.3281 16.912C15.3281 17.572 15.75 18.1495 15.75 18.1495C15.75 18.1495 14.8219 21.4083 14.6531 21.9858C14.4 23.0995 14.0203 24.7495 14.4422 24.7495C14.8641 24.7495 15.3281 23.9245 16.1719 21.862C16.2984 21.5733 16.5938 20.6245 16.5938 20.6245C16.8469 21.0783 17.9016 21.4495 18.7031 21.4495C21.0234 21.4495 22.5 19.3045 22.5 16.4995C22.5 14.3958 20.6438 12.3745 17.8594 12.3745Z" fill="white"/>
</svg>
